<?xml version="1.0" encoding="UTF-8"?>
<svg id="Layer_2" data-name="Layer 2" xmlns="http://www.w3.org/2000/svg" viewBox="0 0 376.14 463.67">
  <defs>
    <style>
      .cls-1 {
        fill: #25ad9f;
      }

      .cls-2 {
        fill: #16376d;
      }
    </style>
  </defs>
  <g id="Layer_1-2" data-name="Layer 1">
    <g>
      <path class="cls-2" d="M336.53,372.65c-28.24,18.71-62.4,29.68-99.16,29.68-97.06,0-176.03-76.49-176.03-170.5S140.31,61.34,237.37,61.34c35.77,0,69.1,10.38,96.9,28.22l38.98-47.85C334.76,15.43,287.9,0,237.37,0,106.29,0,0,103.78,0,231.82s106.29,231.85,237.37,231.85c51.81,0,99.75-16.21,138.77-43.72l-39.61-47.3Z"/>
      <path class="cls-1" d="M276.79,301.33c-11.73,6.13-25.15,9.63-39.42,9.63-45.46,0-82.48-35.51-82.48-79.13s37.02-79.11,82.48-79.11c13.75,0,26.73,3.23,38.13,8.97l39.31-48.25c-22.37-13.97-48.93-22.06-77.43-22.06-79.41,0-143.82,62.87-143.82,140.45s64.41,140.47,143.82,140.47c29.33,0,56.6-8.56,79.34-23.31l-39.92-47.66Z"/>
    </g>
  </g>
</svg>