<?xml version="1.0" encoding="UTF-8"?>
<svg id="Layer_2" data-name="Layer 2" xmlns="http://www.w3.org/2000/svg" viewBox="0 0 1332.84 463.67">
  <defs>
    <style>
      .cls-1 {
        fill: #25ad9f;
      }

      .cls-2 {
        fill: #16376d;
      }
    </style>
  </defs>
  <g id="Layer_1-2" data-name="Layer 1">
    <g>
      <g>
        <path class="cls-2" d="M336.53,372.65c-28.24,18.71-62.4,29.68-99.16,29.68-97.06,0-176.03-76.49-176.03-170.5S140.31,61.34,237.37,61.34c35.77,0,69.1,10.38,96.9,28.22l38.98-47.85C334.76,15.43,287.9,0,237.37,0,106.29,0,0,103.78,0,231.82s106.29,231.85,237.37,231.85c51.81,0,99.75-16.21,138.77-43.72l-39.61-47.3Z"/>
        <path class="cls-1" d="M276.79,301.33c-11.73,6.13-25.15,9.63-39.42,9.63-45.46,0-82.48-35.51-82.48-79.13s37.02-79.11,82.48-79.11c13.75,0,26.73,3.23,38.13,8.97l39.31-48.25c-22.37-13.97-48.93-22.06-77.43-22.06-79.41,0-143.82,62.87-143.82,140.45s64.41,140.47,143.82,140.47c29.33,0,56.6-8.56,79.34-23.31l-39.92-47.66Z"/>
      </g>
      <g>
        <path class="cls-2" d="M483.58,296.69c-12.52,0-24.08-2.25-34.67-6.74-10.59-4.49-19.87-10.71-27.81-18.66-7.95-7.94-14.09-17.22-18.42-27.81-4.33-10.6-6.5-21.99-6.5-34.2s2.17-23.6,6.5-34.19c4.33-10.59,10.43-19.82,18.3-27.69,7.86-7.87,17.1-14.05,27.69-18.54,10.59-4.49,22.07-6.74,34.43-6.74,13.8,0,25.8,2.21,36,6.62,10.19,4.41,19.22,10.4,27.09,17.94l-22.39,22.39c-4.66-5.14-10.35-9.15-17.1-12.04-6.74-2.89-14.61-4.34-23.6-4.34-7.71,0-14.81,1.33-21.31,3.97-6.5,2.65-12.16,6.5-16.98,11.56-4.82,5.05-8.51,11.07-11.08,18.06-2.57,6.98-3.85,14.65-3.85,22.99s1.28,16.25,3.85,23.24c2.57,6.98,6.26,12.97,11.08,17.94,4.82,4.98,10.48,8.83,16.98,11.56,6.5,2.73,13.68,4.1,21.55,4.1,9.47,0,17.58-1.48,24.32-4.46,6.74-2.97,12.52-7.02,17.34-12.16l22.39,22.39c-8.03,7.7-17.3,13.76-27.81,18.18-10.52,4.41-22.51,6.62-36,6.62Z"/>
        <path class="cls-2" d="M557.02,294.04V119.95h31.54v174.09h-31.54ZM635.03,294.04v-66.7c0-6.9-2.17-12.52-6.5-16.85s-9.87-6.5-16.62-6.5c-4.5,0-8.51.96-12.04,2.89-3.53,1.93-6.3,4.7-8.31,8.31-2.01,3.61-3.01,7.67-3.01,12.16l-12.28-6.5c0-8.99,1.93-16.9,5.78-23.72,3.85-6.82,9.23-12.16,16.13-16.01s14.77-5.78,23.6-5.78,16.62,1.89,23.36,5.66c6.74,3.77,12.04,9.03,15.89,15.77s5.78,14.53,5.78,23.36v73.92h-31.79Z"/>
        <path class="cls-2" d="M731.11,296.45c-10.59,0-20.1-2.65-28.53-7.95-8.43-5.29-15.05-12.52-19.86-21.67-4.82-9.15-7.23-19.42-7.23-30.82s2.41-21.92,7.23-31.06c4.82-9.15,11.44-16.38,19.86-21.67,8.43-5.3,18.02-7.95,28.77-7.95,8.19,0,15.57,1.69,22.15,5.06,6.58,3.37,11.88,8.03,15.89,13.96,4.01,5.94,6.18,12.76,6.5,20.47v42.14c-.32,7.55-2.45,14.33-6.38,20.34-3.94,6.02-9.23,10.72-15.89,14.09-6.66,3.37-14.17,5.06-22.51,5.06ZM737.13,267.32c8.83,0,15.97-2.97,21.43-8.91,5.46-5.94,8.19-13.4,8.19-22.39,0-6.1-1.29-11.56-3.85-16.38-2.57-4.82-6.02-8.55-10.35-11.2-4.33-2.64-9.47-3.97-15.41-3.97s-10.88,1.37-15.29,4.09c-4.42,2.73-7.87,6.42-10.35,11.08-2.49,4.66-3.73,10.04-3.73,16.13s1.24,11.72,3.73,16.38c2.49,4.66,5.98,8.35,10.47,11.08,4.49,2.73,9.55,4.09,15.17,4.09ZM764.82,294.04v-31.3l5.3-28.41-5.3-28.17v-28.41h31.79v116.3h-31.79Z"/>
        <path class="cls-2" d="M814.42,342.92v-165.18h31.54v30.58l-5.3,28.17,5.06,28.41v78.02h-31.3ZM878.95,296.45c-8.35,0-15.89-1.69-22.63-5.06-6.74-3.37-12.16-8.06-16.25-14.09-4.09-6.02-6.3-12.8-6.62-20.34v-41.42c.32-7.7,2.53-14.57,6.62-20.59,4.09-6.02,9.51-10.8,16.25-14.33,6.74-3.53,14.28-5.3,22.63-5.3,10.75,0,20.42,2.65,29.01,7.95,8.59,5.29,15.29,12.52,20.11,21.67,4.82,9.15,7.22,19.5,7.22,31.06s-2.45,21.67-7.34,30.82c-4.9,9.15-11.6,16.38-20.11,21.67-8.51,5.3-18.14,7.95-28.89,7.95ZM873.65,267.32c5.78,0,10.84-1.36,15.17-4.09,4.33-2.73,7.74-6.46,10.23-11.2,2.49-4.74,3.73-10.15,3.73-16.26s-1.24-11.47-3.73-16.13c-2.49-4.65-5.9-8.35-10.23-11.08-4.34-2.72-9.47-4.09-15.41-4.09-5.62,0-10.64,1.37-15.05,4.09-4.42,2.73-7.87,6.42-10.35,11.08-2.49,4.66-3.73,10.04-3.73,16.13s1.16,11.52,3.49,16.26,5.78,8.47,10.35,11.2c4.58,2.73,9.75,4.09,15.53,4.09Z"/>
        <path class="cls-2" d="M936.02,205.43v-27.69h85.96v27.69h-85.96ZM963.23,294.04v-164.7h31.54v164.7h-31.54Z"/>
        <path class="cls-2" d="M1085.79,296.69c-12.2,0-23.08-2.65-32.63-7.94-9.55-5.3-17.06-12.52-22.51-21.67-5.46-9.15-8.19-19.58-8.19-31.31s2.69-21.91,8.07-31.06c5.38-9.15,12.72-16.37,22.03-21.67,9.31-5.29,19.75-7.94,31.3-7.94,10.91,0,20.71,2.49,29.38,7.46,8.67,4.98,15.41,11.88,20.23,20.71s7.22,18.86,7.22,30.1c0,2.09-.08,4.21-.24,6.38-.16,2.17-.56,4.53-1.2,7.1l-98,.24v-23.6l83.31-.24-13,9.87c-.16-6.9-1.37-12.68-3.61-17.34-2.25-4.65-5.38-8.19-9.39-10.59-4.01-2.41-8.99-3.61-14.93-3.61-6.26,0-11.72,1.36-16.37,4.09-4.66,2.73-8.23,6.62-10.71,11.68-2.49,5.05-3.73,11.04-3.73,17.94s1.32,13.21,3.97,18.42c2.65,5.22,6.46,9.19,11.44,11.92,4.97,2.73,10.75,4.09,17.34,4.09,5.94,0,11.32-.96,16.13-2.89,4.82-1.93,8.99-4.97,12.52-9.15l18.78,18.78c-5.94,6.74-12.92,11.8-20.95,15.17-8.03,3.37-16.78,5.05-26.25,5.05Z"/>
        <path class="cls-2" d="M1150.8,294.04v-116.3h31.54v116.3h-31.54ZM1182.34,229.99l-12.28-8.43c1.44-14.28,5.62-25.56,12.52-33.83,6.9-8.26,16.86-12.4,29.86-12.4,5.78,0,10.87.93,15.29,2.77,4.41,1.85,8.46,4.86,12.16,9.03l-19.75,22.87c-1.77-2.08-3.89-3.57-6.38-4.46-2.49-.88-5.34-1.32-8.55-1.32-6.74,0-12.24,2.09-16.49,6.26-4.26,4.17-6.38,10.68-6.38,19.5Z"/>
        <path class="cls-2" d="M1285.88,296.69c-6.74,0-13.28-.84-19.63-2.53-6.34-1.68-12.16-4.17-17.46-7.46-5.3-3.29-9.87-7.18-13.72-11.68l19.02-19.02c3.85,4.66,8.43,8.11,13.72,10.35,5.3,2.25,11.08,3.37,17.34,3.37,5.14,0,9.07-.76,11.8-2.29,2.73-1.53,4.09-3.65,4.09-6.38,0-3.21-1.44-5.66-4.33-7.35-2.89-1.68-6.54-3.17-10.96-4.45-4.42-1.29-9.11-2.65-14.09-4.1-4.98-1.44-9.67-3.41-14.09-5.9-4.42-2.49-8.07-5.98-10.96-10.47-2.89-4.49-4.33-10.27-4.33-17.34s1.84-13.85,5.54-19.39c3.69-5.54,8.91-9.79,15.65-12.76,6.74-2.97,14.69-4.45,23.84-4.45,9.63,0,18.34,1.65,26.13,4.94,7.78,3.29,14.24,8.31,19.38,15.05l-19.02,19.26c-3.53-4.17-7.5-7.26-11.92-9.27-4.42-2.01-9.11-3.01-14.09-3.01s-8.43.72-10.84,2.17c-2.41,1.44-3.61,3.45-3.61,6.02,0,2.89,1.36,5.1,4.09,6.62,2.73,1.53,6.34,2.93,10.84,4.22,4.49,1.29,9.19,2.69,14.09,4.21,4.9,1.53,9.55,3.65,13.97,6.38,4.41,2.73,8.02,6.34,10.84,10.83,2.81,4.5,4.21,10.28,4.21,17.34,0,11.4-4.09,20.43-12.28,27.09-8.19,6.66-19.26,9.99-33.23,9.99Z"/>
      </g>
    </g>
  </g>
</svg>